<svg xmlns="http://www.w3.org/2000/svg" viewBox="-360 -360 720 720">
	<g id="icon-bg">
		<!-- <rect fill="pink" x="-360" y="-360" width="720" height="720" /> -->
	</g>

	<g id="icon-border">
		<!-- <polygon fill="#23282f" stroke="#23282f" stroke-width="64" points="-310 0 -155 -268.47 155 -268.47 310 0 155 268.47 -155 268.47" /> -->
		<polygon class="outline" fill="transparent" stroke="#d8dee9" stroke-width="24" points="-310 0 -155 -268.47 155 -268.47 310 0 155 268.47 -155 268.47" />
	</g>

	<g id="icon-cross">
		<line stroke="#d8dee9" stroke-width="10" x1="-120" y1="-210" x2="120" y2="30" />
		<line stroke="#d8dee9" stroke-width="10" x1="120" y1="-210" x2="-120" y2="30" />
		<circle fill="#d8dee9" cx="-120" cy="-210" r="10" />
		<circle fill="#d8dee9" cx="120" cy="-210" r="10" />
		<circle fill="#d8dee9" cx="-120" cy="30" r="10" />
		<circle fill="#d8dee9" cx="120" cy="30" r="10" />
	</g>

	<g id="icon-letters">
		<text fill="#d8dee9" x="-132" y="-65" font-family="Cantata One" font-size="80">B</text>
		<text fill="#d8dee9" x="-28" y="-160" font-family="Cantata One" font-size="80">O</text>
		<text fill="#d8dee9" x="76" y="-65" font-family="Cantata One" font-size="80">C</text>
		<text fill="#d8dee9" x="-18" y="31" font-family="Cantata One" font-size="80">S</text>
	</g>

	<g id="icon-title">
		<text fill="#d8dee9" x="-160" y="129" textLength="120" font-family="Cantata One" font-size="55">
			BAG
		</text>
		<text fill="#d8dee9" x="-24" y="129" textLength="48" font-family="Cantata One" font-size="36">
			OF
		</text>
		<text fill="#d8dee9" x="40" y="129" textLength="120" font-family="Cantata One" font-size="55">
			CAN
		</text>
		<text fill="#d8dee9" x="160" y="129" font-family="Cantata One" font-size="36">
			S
		</text>
		<text fill="#d8dee9" x="-105" y="188" textLength="210" font-family="Cantata One" font-size="55">
			STUDIO
		</text>
	</g>
</svg>
