<svg xmlns="http://www.w3.org/2000/svg" viewBox="0 0 720 720" style="filter: drop-shadow(0 0 1rem yellow);">
	<g id="icon-bg">
		<!-- <rect fill="pink" x="0" y="0" width="100%" height="100%" /> -->
	</g>

	<g id="icon-border">
		<!-- <polygon fill="#23282f" stroke="#23282f" stroke-width="64" points="50 360 205 91.53 515 91.53 670 360 515 628.47 205 628.47" /> -->
		<polygon class="outline" fill="transparent" stroke="#d8dee9" stroke-width="16" points="50 360 205 91.53 515 91.53 670 360 515 628.47 205 628.47" />
	</g>

	<g id="icon-cross">
		<line stroke="#d8dee9" stroke-width="10" x1="240" y1="150" x2="480" y2="390" />
		<line stroke="#d8dee9" stroke-width="10" x1="480" y1="150" x2="240" y2="390" />
		<circle fill="#d8dee9" cx="240" cy="150" r="10" />
		<circle fill="#d8dee9" cx="480" cy="150" r="10" />
		<circle fill="#d8dee9" cx="240" cy="390" r="10" />
		<circle fill="#d8dee9" cx="480" cy="390" r="10" />
	</g>

	<g id="icon-letters">
		<text fill="#d8dee9" x="228" y="295" font-family="Cantata One" font-size="80">B</text>
		<text fill="#d8dee9" x="332" y="200" font-family="Cantata One" font-size="80">O</text>
		<text fill="#d8dee9" x="436" y="295" font-family="Cantata One" font-size="80">C</text>
		<text fill="#d8dee9" x="342" y="391" font-family="Cantata One" font-size="80">S</text>
	</g>

	<g id="icon-title">
		<text fill="#d8dee9" x="200" y="489" textLength="120" font-family="Cantata One" font-size="55">
			BAG
		</text>
		<text fill="#d8dee9" x="336" y="489" textLength="48" font-family="Cantata One" font-size="36">
			OF
		</text>
		<text fill="#d8dee9" x="400" y="489" textLength="120" font-family="Cantata One" font-size="55">
			CAN
		</text>
		<text fill="#d8dee9" x="520" y="489" font-family="Cantata One" font-size="36">
			S
		</text>
		<text fill="#d8dee9" x="255" y="548" textLength="210" font-family="Cantata One" font-size="55">
			STUDIO
		</text>
	</g>
</svg>
