<svg xmlns="http://www.w3.org/2000/svg" viewBox="0 0 1000 1000" width="256" height="256">
	<defs>
		<style>
			.skin{fill:hsla(26,53%,76%,100%);}
			.nose{fill:hsla(24,46%,66%,100%);}
			.chest{fill:hsla(11,100%,75%,100%);}
			.arms{fill:hsla(6,74%,69%,100%);}
			.eyes{fill:hsla(0,0%,16%,100%);}
			.hair{fill:hsla(146,8%,16%,100%);}
			.glasses1{fill:hsla(345,6%,13%,100%);}
			.glasses2{fill:none;stroke:hsla(345,6%,13%,100%);stroke-miterlimit:10;stroke-width:6.5px;}
		</style>
	</defs>
	<g>
		<path class="arms" d="M755.56,777.05c68.57,62.22,135.57,323.83,134.24,408.41-1.2,76.12-285.71,156.68-264.59,27.72,21.12-128.96,103.63-460.38,130.35-436.13Z"/>
		<path class="hair" d="M700.41,585.25s54.79-21.53,67.09-80.2c12.3-58.68,26.36-186.99-75.76-248.99-113.9-69.15-110.83-19.73-110.83-19.73l119.49,348.92Z"/>
		<circle class="hair" cx="308.63" cy="585.25" r="89.91"/>
		<path class="chest" d="M228.85,787.85c27.7-13.13,114.97-56.73,252.88-58.5,137.91-1.77,184.73,9.32,261.33,40.13,65.35,26.28-9.73,199.19,.88,504.4,4.21,121.05,47,257.83,0,310.24-48.05,53.58-458.56,59.64-534.69,0-52.01-40.75,7.66-263.25,8.67-311.76,.47-22.46,28.93-122.85,9.85-224.76-28.54-152.46-71.25-225.47,1.07-259.75Z"/>
		<circle class="skin" cx="505.71" cy="451.49" r="248.48"/>
		<path class="eyes" d="M688.04,481.23c-.16,8.71,6.78,15.9,15.49,16.06,8.71,.16,15.9-6.78,16.06-15.49,.16-8.71-6.78-15.9-15.49-16.06-8.71-.16-15.9,6.78-16.06,15.49"/>
		<path class="eyes" d="M473.95,495.05c-.16,8.71,6.78,15.9,15.49,16.06,8.71,.16,15.9-6.78,16.06-15.49,.16-8.71-6.78-15.9-15.49-16.06-8.71-.16-15.9,6.78-16.06,15.49"/>
		<path class="nose" d="M581.86,484.53s3.7,11.32,3.47,24.25c-.23,12.93-4.31,22.1-4.31,22.1,0,0,27.65,.96,31.96-18.37,4.31-19.33-23.06-32.62-31.12-27.98"/>
		<rect class="skin" x="454.73" y="564.59" width="113.05" height="221.13" rx="56.53" ry="56.53" transform="translate(1056.15 1323.48) rotate(177.09)"/>
		<path class="hair" d="M580.91,346.18c-72.25-4.99-115.6-59.81-183.6-34.52-103.5,38.49-4.49,188.25-46.38,204.58-53.61,20.9-34.22-64.75-77.34-64.75s-39.95-167.57,84.45-232.41c105.14-54.81,254.97-60.66,366.39,61.2,25.71,28.12,18.23,56.81,28.17,83.84,4.25,11.57,8.03,40.04,1.58,29.53-9.14-14.9-16.33-64.21-53.78-82.61-50.56-24.84-55.2,39.59-119.49,35.15Z"/>
		<path class="arms" d="M228.85,787.85c-79.55,32.61-105.36,318.81-40.85,366.61,64.51,47.8,139.29,49.06,193.62,23.42,54.33-25.64-9.67-448.7-152.77-390.03Z"/>
		<path class="glasses2" d="M573.83,483.86c0,49.01-39.73,88.74-88.74,88.74s-88.74-39.73-88.74-88.74,39.73-61.88,88.74-61.88,88.74,12.87,88.74,61.88Z"/>
		<path class="glasses2" d="M797.02,458c5.57,48.69-29.38,92.68-78.07,98.25-48.69,5.57-92.68-29.38-98.25-78.07s32.43-66,81.12-71.57c48.69-5.57,89.62,2.7,95.2,51.39Z"/>
		<path class="glasses1" d="M427.85,430.32s-76.49,10.62-123.88-15.35c-47.39-25.97-69.51-18.03-73.82-9.87-4.31,8.16-9.11,9.63,10.03,9.75s115.75,28.94,130.33,36.63c14.58,7.69,24.1,13.37,25.86,31.01s-16.88-35.45,31.49-52.17Z"/>
		<circle class="skin" cx="257.24" cy="465.73" r="61.15"/>
		<path class="glasses1" d="M554.05,437.55s11.62,10.8,14.28,17.68c2.66,6.88,.48-9.3,17.26-11.35s34.56,13.27,34.56,13.27l19.38-31.04s-19.38,1.73-44.29,5.01c-26.23,3.45-57.17-2.42-57.17-2.42l15.98,8.85Z"/>
	</g>
</svg>
